<svg width="36" height="30" viewBox="0 0 36 30" fill="none" xmlns="http://www.w3.org/2000/svg">
<path d="M5.75 2.14286C5.75 0.957589 6.53203 0 7.5 0H9.25C10.218 0 11 0.957589 11 2.14286V12.8571V17.1429V27.8571C11 29.0424 10.218 30 9.25 30H7.5C6.53203 30 5.75 29.0424 5.75 27.8571V23.5714H4C3.03203 23.5714 2.25 22.6138 2.25 21.4286V17.1429C1.28203 17.1429 0.5 16.1853 0.5 15C0.5 13.8147 1.28203 12.8571 2.25 12.8571V8.57143C2.25 7.38616 3.03203 6.42857 4 6.42857H5.75V2.14286ZM30.25 2.14286V6.42857H32C32.968 6.42857 33.75 7.38616 33.75 8.57143V12.8571C34.718 12.8571 35.5 13.8147 35.5 15C35.5 16.1853 34.718 17.1429 33.75 17.1429V21.4286C33.75 22.6138 32.968 23.5714 32 23.5714H30.25V27.8571C30.25 29.0424 29.468 30 28.5 30H26.75C25.782 30 25 29.0424 25 27.8571V17.1429V12.8571V2.14286C25 0.957589 25.782 0 26.75 0H28.5C29.468 0 30.25 0.957589 30.25 2.14286ZM23.25 12.8571V17.1429H12.75V12.8571H23.25Z" fill="#A1A1A1"/>
</svg>
