<svg width="30" height="30" viewBox="0 0 30 30" fill="none" xmlns="http://www.w3.org/2000/svg">
<path d="M29.9921 14.9678C29.9921 16.0223 29.2107 16.8483 28.325 16.8483H26.6579L26.6944 26.2332C26.6944 26.3913 26.684 26.5495 26.6684 26.7077V27.6567C26.6684 28.9514 25.7358 30 24.5845 30H23.7509C23.6936 30 23.6363 30 23.579 29.9941C23.5061 30 23.4331 30 23.3602 30L21.6671 29.9941H20.4167C19.2654 29.9941 18.3329 28.9455 18.3329 27.6509V26.2449V22.4956C18.3329 21.4587 17.5879 20.621 16.6658 20.621H13.3316C12.4095 20.621 11.6645 21.4587 11.6645 22.4956V26.2449V27.6509C11.6645 28.9455 10.7319 29.9941 9.5806 29.9941H8.33028H6.66839C6.59025 29.9941 6.5121 29.9883 6.43396 29.9824C6.37144 29.9883 6.30892 29.9941 6.24641 29.9941H5.41286C4.26152 29.9941 3.32899 28.9455 3.32899 27.6509V21.0896C3.32899 21.0369 3.32899 20.9783 3.3342 20.9256V16.8424H1.6671C0.729355 16.8424 0 16.0223 0 14.9619C0 14.4347 0.15629 13.966 0.520968 13.5559L13.8734 0.468658C14.2381 0.0585823 14.6548 0 15.0195 0C15.3842 0 15.801 0.117165 16.1135 0.410076L29.4191 13.5618C29.8358 13.9719 30.0442 14.4405 29.9921 14.9678Z" fill="#1C2541"/>
</svg>
